<svg xmlns="http://www.w3.org/2000/svg" xml:space="preserve" id="svg1" width="718.701" height="363.372" viewBox="0 0 190.156 96.142"><g id="layer1" transform="translate(4.281 -18.864)"><g id="g31" transform="translate(-61.09 -8.302)scale(1.67984)"><ellipse id="path29" cx="122.096" cy="36.669" rx="10.456" ry="10.945" style="fill:#fff;stroke-width:.26263"/><ellipse id="path28" cx="93.814" cy="37.203" rx="14.312" ry="12.628" style="fill:#fff;stroke-width:.272761"/><ellipse id="path30" cx="110.289" cy="31.103" rx="2.011" ry="2.479" style="fill:#fff;stroke-width:.264583"/><path id="path24" d="M71.925 67.629c-1.66-2.636-3.667-5.358-3.951-5.358-.122 0-.163 1.128-.09 2.506.106 2.032.049 2.63-.303 3.166-.296.453-.578.608-.895.494-.79-.285-3.036-1.843-4.696-3.257-.873-.743-2.153-1.662-2.844-2.04s-1.257-.776-1.257-.882c0-.107.673-.867 1.496-1.69 2.5-2.5 7.116-4.365 10.837-4.378 4.544-.015 8.49 2.18 10.012 5.572.664 1.48.724 1.857.62 3.918-.117 2.333-.733 4.134-1.344 3.93-.17-.056-.648-.808-1.064-1.67-1.174-2.432-3.168-5.669-3.492-5.669-.204 0-.259.954-.181 3.134.12 3.363-.1 4.274-1.027 4.274-.373 0-.912-.607-1.82-2.05m50.376-1.548c-1.285-.872-4.454-3.543-4.575-3.856-.346-.898 4.171-4.376 6.634-5.107 2.004-.595 4.055-.515 5.633.22 1.743.812 3.605 2.894 4.18 4.674.56 1.733.588 3.17.063 3.17-.372 0-.66-.315-3.236-3.551-1.26-1.584-1.697-1.624-1.168-.109.361 1.037.374 3.663.023 4.587-.38 1-.97.764-2.318-.928-2.181-2.739-3.294-4-3.42-3.875-.068.069.025 1.017.209 2.107.298 1.773.285 2.054-.118 2.669-.557.85-.653.85-1.907 0m-35.536-2.589-2.213-.295-.801-1.587c-1.57-3.112-4.204-5.499-7.657-6.939-1.452-.606-2.136-.71-5.267-.81-3.033-.097-3.947-.027-5.82.44-2.807.702-5.98 2.26-8.112 3.985-.91.737-1.687 1.34-1.727 1.34-.127 0 .318-5.363.616-7.41.465-3.195 1.56-7.851 2.423-10.297 3.454-9.788 11.497-17.986 20.639-21.033 7.946-2.649 17.923-2.45 25.497.507 1.008.393 3.058 1.388 4.557 2.21 3.132 1.718 3.389 1.43-2.147 2.415l-3.127.556-1.635-.653c-5.456-2.177-12.1-1.817-17.644.955-3.022 1.512-5.802 4.242-7.35 7.217-1.16 2.233-1.348 2.216-.74-.066.203-.764.267-1.39.143-1.39s-1.156.288-2.292.64c-1.135.351-3.45 1.066-5.144 1.587l-3.08.949-.19 2.924c-.106 1.609-.143 2.974-.083 3.034.095.095 8.112-.948 10.046-1.307.63-.117.773.015 1.389 1.273 1.432 2.928 5.544 5.818 10.004 7.032 2.08.566 5.84 1.061 8.09 1.064 3.418.005 7.557-1.404 9.821-3.345 1.351-1.157 3.586-4.452 4.034-5.945.169-.565.437-1.026.596-1.025 1.708.005 15.366 3.046 16.404 3.652 3.157 1.843 2.537 5.929-1.473 9.711-5.969 5.631-15.784 9.753-25.47 10.696-3.57.348-9.34.308-12.287-.085m19.41-4.624c.583-.265 1.207-.66 1.388-.88.284-.343.04-.454-1.799-.816-1.17-.23-2.886-.774-3.814-1.208s-1.755-.72-1.84-.637c-.36.36-.108 1.902.42 2.574 1.144 1.454 3.637 1.88 5.645.967m17.132-8.386c1.128-.951 2.229-2.075 2.447-2.498.598-1.156.51-2.296-.213-2.77-1.462-.957-7.245-1.394-8.033-.606-.908.908.496 4.504 2.636 6.749.45.473.886.859.966.857.08 0 1.07-.78 2.197-1.732" style="fill:#fcb047"/><path id="path23" d="M71.647 72.989c-.583-.265-1.759-.435-3.175-.458-2.568-.044-3.37-.35-5.508-2.104-1.38-1.132-1.47-1.163-5.081-1.732-9.922-1.565-18.006-4.445-21.465-7.647-1.915-1.773-2.608-3.036-2.6-4.739.02-4.578 5.623-8.264 16.403-10.792 1.67-.392 3.205-.796 3.409-.898s.762-1.353 1.24-2.78c2.791-8.33 7.722-14.98 14.579-19.663 2.8-1.912 3.79-2.427 7.307-3.8 4.681-1.826 7.074-2.205 13.941-2.205 5.107 0 6.31.08 8.467.563 2.8.627 6.825 2.02 9.014 3.122 1.642.826 5.571 3.333 6.683 4.264.709.594.943.627 4.498.63 5.812.007 8.359.845 11.2 3.687 3.905 3.904 4.644 9.862 1.881 15.163-.473.909-.9 1.735-.946 1.836-.047.1.429.312 1.057.47 2.162.541 6.438 2.189 8.731 3.364 4.256 2.18 5.92 4.212 5.719 6.984-.194 2.676-2.205 4.814-6.707 7.129-2.068 1.063-2.236 1.21-2.237 1.96 0 2.083-1.396 3.276-3.87 3.31-.652.009-1.23.181-1.435.43-.824.991-1.838 1.22-5.77 1.305-4.115.088-4.683-.042-6.692-1.527-.546-.404-.928-.487-1.595-.347-7.671 1.61-17.814 2.535-27.817 2.535h-6.857l-1.009 1.04c-1.276 1.314-2.687 1.594-4.856.963-1.334-.387-1.557-.39-2.261-.026-1.004.52-3.062.501-4.248-.037m2.933-3.833c.2-.376.267-1.638.193-3.704-.078-2.18-.023-3.134.18-3.134.325 0 2.319 3.237 3.493 5.669.416.862.895 1.614 1.064 1.67.611.204 1.227-1.597 1.344-3.93.104-2.061.044-2.438-.62-3.919-1.522-3.39-5.468-5.586-10.012-5.571-3.72.013-8.336 1.877-10.837 4.377-.823.823-1.496 1.584-1.496 1.69 0 .107.566.504 1.257.882.691.379 1.97 1.297 2.844 2.041 1.66 1.414 3.906 2.972 4.696 3.257.317.114.599-.042.895-.494.352-.536.409-1.134.302-3.167-.072-1.378-.031-2.505.09-2.505.285 0 2.292 2.721 3.952 5.358 1.373 2.18 2.072 2.569 2.655 1.48m49.628-3.027c.403-.615.416-.896.118-2.67-.184-1.09-.277-2.037-.208-2.106.125-.125 1.238 1.136 3.42 3.875 1.348 1.692 1.937 1.928 2.317.928.352-.925.338-3.55-.023-4.587-.529-1.515-.092-1.475 1.168.109 2.577 3.236 2.864 3.55 3.236 3.55.525 0 .497-1.436-.063-3.17-.575-1.78-2.437-3.861-4.18-4.673-1.578-.735-3.63-.815-5.633-.22-2.463.731-6.98 4.21-6.634 5.107.227.588 5.285 4.544 5.81 4.544.122 0 .425-.31.672-.687m-25.156-2.505c9.686-.944 19.501-5.065 25.47-10.696 4.01-3.783 4.63-7.868 1.473-9.711-1.038-.607-14.696-3.648-16.404-3.653-.16 0-.427.461-.596 1.025-.448 1.493-2.683 4.788-4.034 5.946-2.264 1.94-6.403 3.35-9.82 3.345-2.251-.003-6.01-.498-8.091-1.064-4.46-1.214-8.572-4.104-10.004-7.032-.616-1.258-.76-1.39-1.39-1.273-1.933.359-9.95 1.402-10.045 1.307-.06-.06-.023-1.425.082-3.034l.191-2.924 3.08-.949c1.694-.522 4.01-1.236 5.144-1.587 1.136-.352 2.167-.64 2.292-.64.124 0 .06.626-.143 1.39-.608 2.282-.42 2.299.74.066 1.548-2.976 4.328-5.705 7.35-7.217 5.543-2.773 12.188-3.132 17.644-.955l1.635.653 3.127-.556c5.536-.985 5.28-.697 2.147-2.416-1.499-.821-3.55-1.816-4.557-2.21-7.574-2.957-17.551-3.155-25.497-.506-9.142 3.047-17.185 11.244-20.639 21.033-.862 2.445-1.958 7.102-2.423 10.298-.298 2.046-.743 7.408-.615 7.408.04 0 .816-.603 1.726-1.339 2.132-1.725 5.305-3.283 8.112-3.984 1.873-.469 2.787-.538 5.82-.442 3.131.1 3.815.205 5.267.81 3.453 1.441 6.087 3.828 7.657 6.94l.8 1.587 2.214.295c2.947.392 8.717.432 12.287.085m2.868-4.593c-1.112-.484-1.962-1.636-1.962-2.658 0-.465.069-.915.153-1 .084-.083.912.203 1.84.637.927.435 2.643.978 3.813 1.209 1.839.362 2.083.473 1.799.816-.982 1.187-3.987 1.718-5.643.996m18.224-7.627c-1.304-1.368-2.41-3.324-2.757-4.875-.282-1.26-.267-1.486.12-1.875.789-.787 6.572-.35 8.034.607.723.474.811 1.614.213 2.77-.346.67-4.247 4.223-4.644 4.23-.08.001-.515-.384-.966-.857m-19.855-4.758c1.943-.898 4.242-3.07 5.087-4.804.925-1.9 1.366-4.975.984-6.874-1.202-5.988-6.358-9.615-12.6-8.864-2.361.285-4.301 1.266-5.95 3.01-2.368 2.503-3.345 5.649-2.87 9.242.52 3.936 3.546 7.515 7.42 8.776.722.234 2.05.337 3.761.29 2.21-.06 2.897-.189 4.168-.776m-6.861-2.53c-3.06-1.094-5.087-3.745-5.316-6.953-.235-3.28 1.032-5.565 3.955-7.134 1.484-.797 1.897-.898 3.657-.89 2.463.01 3.96.667 5.657 2.48 2.152 2.3 2.622 5.98 1.139 8.907-1.641 3.239-5.65 4.822-9.092 3.59m1.647-7.318c.357-.358.65-.958.65-1.335 0-.883-1.103-1.985-1.985-1.985-.377 0-.978.292-1.335.65-.357.357-.65.958-.65 1.335s.293.977.65 1.335c.357.357.958.649 1.335.649s.978-.292 1.335-.65m36.532 2.725c.884-3.444-.07-7.386-2.415-9.981-.584-.646-1.797-1.493-2.964-2.07-1.716-.848-2.278-.99-4.267-1.083-1.88-.086-2.564-.003-3.805.465-1.802.68-3.475 2.224-4.519 4.171-.887 1.655-1.59 4.792-1.355 6.046.17.903.173.905 1.664.905h1.494l-.093-1.17c-.323-4.058 3.052-7.912 6.94-7.926 3.068-.011 5.305 1.51 6.748 4.586.593 1.264.684 1.797.657 3.849-.019 1.43-.187 2.75-.42 3.307-.37.882-.357.969.29 1.824l.68.899.467-1.072c.257-.59.661-1.827.898-2.75M121.7 36.48c.594-.537.63-1.76.068-2.321-.49-.49-2.25-.554-2.706-.099-.453.453-.393 1.951.098 2.442.544.544 1.928.532 2.54-.022m-38.127-4.374c.499-1.191.951-2.274 1.004-2.407.167-.415-.938.296-1.803 1.16-.807.808-1.865 2.587-1.865 3.138 0 .151.395.275.878.275.848 0 .908-.072 1.786-2.166m27.491-.917c.3-.968.497-1.807.44-1.865-.223-.222-1.473.257-1.9.728-.246.272-.508 1.035-.583 1.696-.135 1.195-.131 1.201.682 1.201.778 0 .845-.087 1.361-1.76" style="fill:#1b1b1d"/></g></g></svg>