<svg xmlns="http://www.w3.org/2000/svg" width="500" height="500" viewBox="0 0 500 500"><path fill="#db964b" d="M94.572 139.521c1.432-2.834 2.98-4.2 6.208-3.538 3.535 2.078 4.493 3.516 7.449 5.715 1.309 1.574 4.976 4.581 6.641 6.215 3.891 3.818 7.933 7.567 11.908 11.295 2.793 2.62 6.43 5.479 8.991 8.09 27.935-12.435 63.878-9.313 93.864-9.1 4.92.035 19.874-.684 23.559.645.815.294 1.512 1.168 1.853 1.941.624 1.418.345 3.035-.224 4.421-2.177 5.308-8.123 8.567-13.187 10.53-10.48 4.061-22.151 4.939-33.211 6.379 3.557 5.114 7.452 10.252 11.502 15.055 11.237 13.328 27.493 22.606 44.604 25.828 1.901.358 3.639.578 5.554.607-.914 1.913-1.69 3.572-1.959 5.681-1.004 7.862 5.154 12.095 11.976 12.721 4.717-4.217 6.159-10.528 7.614-16.443 1.367.413 4.405 1.02 4.98 2.169.725 1.448-1.03 5.116-1.724 6.501-8.129 16.236-24.222 28.979-41.264 34.762-15.687 5.323-34.69 7.502-51.228 7.929-7.372.19-15.226-.575-22.54.083.513 3.965.968 6.359 1.895 10.292 8.938.031 32.373.55 40.606-1.547-1.408 2.215-2.503 3.595-4.127 5.623-2.727 3.263-4.009 5.25-5.635 9.173-1.33 3.175-2.473 6.733-2.875 10.159-7.329-.531-13.929-.935-21.257-1.744-8.974-1.486-20.888-5.467-27.082-12.438-.515 1.068-1.028 1.983-1.606 3.011-1.088 1.336-2.012 2.715-2.99 4.132 3.637 2.398 6.792 4.434 10.824 6.318 11.778 5.474 25.07 7.447 37.914 8.496 5.817.475 11.808.096 17.38 2.093 5.682 1.891 8.312 10.099 4.776 14.856-2.93 3.942-9.508 6.041-14.201 6.551-5.992.653-13.689 1.3-19.637.76.118 2.789.413 6.998.32 9.682 5.075-.148 10.826.003 15.776-.594 3.57-.191 10.56-1.886 13.155-1.277 11.444 5.533 25.719 7.531 38.194 9.359 2.188 6.044 4.691 11.041 12.444 10.312a11.48 11.48 0 0 0 8.085-4.475c7.749-10.102-8.686-25.884-19.752-9.842-7.537-2.639-15.418-4.416-23.049-6.784-2.794-.867-5.628-1.713-8.502-2.26.923-1.136 3.084-3.156 4.129-4.248 4.373-4.573 5.384-7.681 5.831-13.757a59 59 0 0 0 3.715 1.498c7.485 2.66 15.801 4 23.649 5.156 37.328 5.501 89.694 3.366 123.956-13.007 11.99-5.73 19.584-11.613 24.144-24.492 1.137 8.241.734 22.542.785 31.229.047 8.061.548 20.756-.951 28.295-1.32 6.637-10.461 14.463-16.486 17.628-37.786 19.853-87.323 22.214-128.988 17.596-9.829-1.09-24.747-5.003-33.942-7.562.048 2.427-.166 5.45-.274 7.914l-98.16.159c-16.29 0-33.625.295-49.84-.175-.88-4.555-1.599-12.276-.917-16.662 1.624-10.454 5.093-21.406 8.026-31.585q5.946-20.626 12.114-41.187c3.809-12.784 7.879-26.085 10.383-39.154 5.713-2.539 9.525-3.732 15.517-6.803-2.376-2.767-4.192-6.135-5.733-9.438-4.845 3.443-12.268 6.714-17.832 8.36-8.103-2.412-14.42-12.29-18.527-19.202-5.807-9.776-3.368-20.981 6.899-26.54 7.127-3.86 15.363-.915 22.644 1.389-5.564-17.618-10.31-35.522-16.185-53.061-2.153-6.426-4.907-13.012-5.98-19.693m94.053 101.524c7.144-5.295 9.193-9.807 11.93-18.127-5.445.239-13.863-.683-19.085.156q-.088-7.572-.286-15.141c6.449.283 13.048-.269 19.328-.1-2.447-5.602-4.989-11.297-9.842-15.261-5.935-4.848-14.858-7.84-22.518-6.731-8.616 1.191-15.584 4.327-20.946 11.401a30.73 30.73 0 0 0-5.804 22.855c2.464 17.02 17.913 28.379 34.916 25.751a30.1 30.1 0 0 0 12.307-4.803"/><path fill="#db964b" d="M298.34 99.871c29.635.345 58.963 2.598 86.114 14.417 56.119 24.429 15.592 49.72-21.074 57.946-24.718 5.545-45.419 6.844-70.309 6.725-7.368-.098-14.619-.345-21.926-1.372-2.694-.379-5.391-.715-8.11-.839 2.191-4.184 4.778-6.803 5.641-11.789 1.445-8.346-3.711-17.052-12.179-18.9-8.535-1.863-18.951-1.492-27.811-1.521l-28.822-.055c-3.967.001-11.08.221-14.734-.349l-.301-.049c-1.503-9.119 4.783-16.976 12.074-21.561 30.087-18.923 66.851-21.966 101.437-22.653m113.588 123.427c.414 2.534.49 6.894.583 9.547q.315 10.094.322 20.191c.035 7.838.204 15.912-.143 23.726-.595 13.412-14.391 23.014-25.525 27.827-32.253 13.943-68.786 16.96-103.558 14.787-9.153-.572-17.9-1.363-26.927-3.05a202 202 0 0 1-35.055-10.204c3.035-6.611 7.961-12.927 14.254-16.702 4.188.646 7.781 1.969 12.334 2.339 1.181.258 2.007.5 3.224.483 2.548.596 7.584 1.135 10.223 1.417 8.909.93 17.861 1.406 26.819 1.426 1.579 3.716 3.184 7.347 7.024 9.198 3.535 1.704 7.962 2.271 11.697.986a14 14 0 0 0 8.101-7.297 14.9 14.9 0 0 0 .501-11.36c-3.36-9.184-15.411-12.379-22.801-5.629-2.133 1.948-3.39 4.66-4.471 7.306-6.867-.003-31.624-1.629-37.314-3.36-.724-.22-1.282-.415-1.635-1.101.977-.969 11.316-4.702 13.69-5.862a91 91 0 0 0 13.279-7.908c2.841-2.052 6.899-6.935 10.164-7.701 2.944-.691 6.545-.209 9.551-.112 4.429.144 8.861.328 13.293.275 24.234-.286 52.96-3.812 75.284-13.537 12.896-5.618 21.883-12.396 27.086-25.685"/><path fill="#db964b" d="m411.783 151.872.354.134c.84 1.042.792 29.505.652 33.297-.401 10.807 2.109 23.042-6.09 31.391-12.233 12.457-30.155 17.916-46.638 22.056-18.922 4.753-39.239 5.345-58.631 6.398 3.742-7.835 8.509-18.453 2.42-26.483-5.005-6.6-16.33-6.393-23.909-7.214-6.379-.298-23.056-3.573-28.617-6.66-1.588-6.108-2.136-10.341-7.025-15.403a656 656 0 0 1 9.339-5.219c5.06.747 10.096 1.921 15.171 2.388 32.327 2.979 65.666 2.403 97.194-5.999 13.992-3.729 28.897-9.221 39.413-19.573 2.523-2.483 4.582-6.064 6.367-9.113"/></svg>